<?xml version="1.0" encoding="UTF-8"?>
<!DOCTYPE svg  PUBLIC '-//W3C//DTD SVG 1.1//EN'  'http://www.w3.org/Graphics/SVG/1.1/DTD/svg11.dtd'>
<svg width="800px" height="800px" fill="#fafafa" stroke="#fafafa" version="1.1" viewBox="0 0 8.4667 8.4667" xmlns="http://www.w3.org/2000/svg">
<g transform="translate(0 -288.53)">
<path transform="matrix(.26458 0 0 .26458 0 288.53)" d="m15.996 0.99609c-6.0633 0-10.998 4.9367-10.998 11-3.8e-6 10.669 10.379 18.779 10.379 18.779 0.36461 0.29038 0.88148 0.29038 1.2461 0 0 0 10.381-8.1106 10.381-18.779-1.3e-5 -6.0633-4.9445-11-11.008-11zm0 6.002c2.7496 0 5.0058 2.2485 5.0059 4.998 1.8e-5 2.7496-2.2563 5.0039-5.0059 5.0039s-4.9981-2.2543-4.998-5.0039c9e-6 -2.7496 2.2485-4.998 4.998-4.998z" color="#fafafa" color-rendering="auto" dominant-baseline="auto" fill="#fafafa" image-rendering="auto" shape-rendering="auto" solid-color="#fafafa" stroke="none" style="font-feature-settings:normal;font-variant-alternates:normal;font-variant-caps:normal;font-variant-ligatures:normal;font-variant-numeric:normal;font-variant-position:normal;isolation:auto;mix-blend-mode:normal;paint-order:stroke fill markers;shape-padding:0;text-decoration-color:#fafafa;text-decoration-line:none;text-decoration-style:solid;text-indent:0;text-orientation:mixed;text-transform:none;white-space:normal"/>
</g>
</svg>
